<mxfile host="app.diagrams.net" modified="2023-04-29T16:31:41.563Z" agent="Mozilla/5.0 (Windows NT 10.0; Win64; x64; rv:109.0) Gecko/20100101 Firefox/112.0" etag="AuZSZfh-WX6hZibt4AgW" version="21.2.3" type="github">
  <diagram id="R2lEEEUBdFMjLlhIrx00" name="Page-1">
    <mxGraphModel dx="588" dy="321" grid="1" gridSize="10" guides="1" tooltips="1" connect="1" arrows="1" fold="1" page="1" pageScale="1" pageWidth="850" pageHeight="1100" math="0" shadow="0" extFonts="Permanent Marker^https://fonts.googleapis.com/css?family=Permanent+Marker">
      <root>
        <mxCell id="0" />
        <mxCell id="1" parent="0" />
        <mxCell id="2LCNzhsqRDMmrgR8RLJ1-1" value="User" style="swimlane;fontStyle=0;childLayout=stackLayout;horizontal=1;startSize=26;fillColor=none;horizontalStack=0;resizeParent=1;resizeParentMax=0;resizeLast=0;collapsible=1;marginBottom=0;whiteSpace=wrap;html=1;" vertex="1" parent="1">
          <mxGeometry x="50" y="100" width="150" height="70" as="geometry" />
        </mxCell>
        <mxCell id="2LCNzhsqRDMmrgR8RLJ1-2" value="&lt;b&gt;username: TEXT [PK]&lt;/b&gt;" style="text;strokeColor=default;fillColor=none;align=left;verticalAlign=top;spacingLeft=4;spacingRight=4;overflow=hidden;rotatable=0;points=[[0,0.5],[1,0.5]];portConstraint=eastwest;whiteSpace=wrap;html=1;" vertex="1" parent="2LCNzhsqRDMmrgR8RLJ1-1">
          <mxGeometry y="18" width="150" height="26" as="geometry" />
        </mxCell>
        <mxCell id="2LCNzhsqRDMmrgR8RLJ1-3" value="role: CHOICE" style="text;strokeColor=none;fillColor=none;align=left;verticalAlign=top;spacingLeft=4;spacingRight=4;overflow=hidden;rotatable=0;points=[[0,0.5],[1,0.5]];portConstraint=eastwest;whiteSpace=wrap;html=1;" vertex="1" parent="2LCNzhsqRDMmrgR8RLJ1-1">
          <mxGeometry y="44" width="150" height="26" as="geometry" />
        </mxCell>
        <mxCell id="2LCNzhsqRDMmrgR8RLJ1-4" value="Event" style="swimlane;fontStyle=0;childLayout=stackLayout;horizontal=1;startSize=26;fillColor=none;horizontalStack=0;resizeParent=1;resizeParentMax=0;resizeLast=0;collapsible=1;marginBottom=0;whiteSpace=wrap;html=1;" vertex="1" parent="1">
          <mxGeometry x="890" y="290" width="190" height="260" as="geometry" />
        </mxCell>
        <mxCell id="2LCNzhsqRDMmrgR8RLJ1-5" value="&lt;b&gt;ID: INT [PK]&lt;/b&gt;" style="text;strokeColor=default;fillColor=none;align=left;verticalAlign=top;spacingLeft=4;spacingRight=4;overflow=hidden;rotatable=0;points=[[0,0.5],[1,0.5]];portConstraint=eastwest;whiteSpace=wrap;html=1;" vertex="1" parent="2LCNzhsqRDMmrgR8RLJ1-4">
          <mxGeometry y="26" width="190" height="26" as="geometry" />
        </mxCell>
        <mxCell id="2LCNzhsqRDMmrgR8RLJ1-6" value="client: INT [FK] not null" style="text;strokeColor=none;fillColor=none;align=left;verticalAlign=top;spacingLeft=4;spacingRight=4;overflow=hidden;rotatable=0;points=[[0,0.5],[1,0.5]];portConstraint=eastwest;whiteSpace=wrap;html=1;" vertex="1" parent="2LCNzhsqRDMmrgR8RLJ1-4">
          <mxGeometry y="52" width="190" height="26" as="geometry" />
        </mxCell>
        <mxCell id="2LCNzhsqRDMmrgR8RLJ1-7" value="dateCreated: DATETIME" style="text;strokeColor=none;fillColor=none;align=left;verticalAlign=top;spacingLeft=4;spacingRight=4;overflow=hidden;rotatable=0;points=[[0,0.5],[1,0.5]];portConstraint=eastwest;whiteSpace=wrap;html=1;" vertex="1" parent="2LCNzhsqRDMmrgR8RLJ1-4">
          <mxGeometry y="78" width="190" height="26" as="geometry" />
        </mxCell>
        <mxCell id="2LCNzhsqRDMmrgR8RLJ1-8" value="dateUpdated: DATETIME" style="text;strokeColor=none;fillColor=none;align=left;verticalAlign=top;spacingLeft=4;spacingRight=4;overflow=hidden;rotatable=0;points=[[0,0.5],[1,0.5]];portConstraint=eastwest;whiteSpace=wrap;html=1;" vertex="1" parent="2LCNzhsqRDMmrgR8RLJ1-4">
          <mxGeometry y="104" width="190" height="26" as="geometry" />
        </mxCell>
        <mxCell id="2LCNzhsqRDMmrgR8RLJ1-9" value="supportContact: INT [FK] not null" style="text;strokeColor=none;fillColor=none;align=left;verticalAlign=top;spacingLeft=4;spacingRight=4;overflow=hidden;rotatable=0;points=[[0,0.5],[1,0.5]];portConstraint=eastwest;whiteSpace=wrap;html=1;" vertex="1" parent="2LCNzhsqRDMmrgR8RLJ1-4">
          <mxGeometry y="130" width="190" height="26" as="geometry" />
        </mxCell>
        <mxCell id="2LCNzhsqRDMmrgR8RLJ1-10" value="eventStatus: CHOICE" style="text;strokeColor=none;fillColor=none;align=left;verticalAlign=top;spacingLeft=4;spacingRight=4;overflow=hidden;rotatable=0;points=[[0,0.5],[1,0.5]];portConstraint=eastwest;whiteSpace=wrap;html=1;" vertex="1" parent="2LCNzhsqRDMmrgR8RLJ1-4">
          <mxGeometry y="156" width="190" height="26" as="geometry" />
        </mxCell>
        <mxCell id="2LCNzhsqRDMmrgR8RLJ1-11" value="attendees: INT" style="text;strokeColor=none;fillColor=none;align=left;verticalAlign=top;spacingLeft=4;spacingRight=4;overflow=hidden;rotatable=0;points=[[0,0.5],[1,0.5]];portConstraint=eastwest;whiteSpace=wrap;html=1;" vertex="1" parent="2LCNzhsqRDMmrgR8RLJ1-4">
          <mxGeometry y="182" width="190" height="26" as="geometry" />
        </mxCell>
        <mxCell id="2LCNzhsqRDMmrgR8RLJ1-12" value="eventDate: DATETIME" style="text;strokeColor=none;fillColor=none;align=left;verticalAlign=top;spacingLeft=4;spacingRight=4;overflow=hidden;rotatable=0;points=[[0,0.5],[1,0.5]];portConstraint=eastwest;whiteSpace=wrap;html=1;" vertex="1" parent="2LCNzhsqRDMmrgR8RLJ1-4">
          <mxGeometry y="208" width="190" height="26" as="geometry" />
        </mxCell>
        <mxCell id="2LCNzhsqRDMmrgR8RLJ1-13" value="note: TEXT" style="text;strokeColor=none;fillColor=none;align=left;verticalAlign=top;spacingLeft=4;spacingRight=4;overflow=hidden;rotatable=0;points=[[0,0.5],[1,0.5]];portConstraint=eastwest;whiteSpace=wrap;html=1;" vertex="1" parent="2LCNzhsqRDMmrgR8RLJ1-4">
          <mxGeometry y="234" width="190" height="26" as="geometry" />
        </mxCell>
        <mxCell id="2LCNzhsqRDMmrgR8RLJ1-14" value="Contract" style="swimlane;fontStyle=0;childLayout=stackLayout;horizontal=1;startSize=26;fillColor=none;horizontalStack=0;resizeParent=1;resizeParentMax=0;resizeLast=0;collapsible=1;marginBottom=0;whiteSpace=wrap;html=1;" vertex="1" parent="1">
          <mxGeometry x="560" y="40" width="160" height="234" as="geometry" />
        </mxCell>
        <mxCell id="2LCNzhsqRDMmrgR8RLJ1-15" value="&lt;b&gt;ID: INT [PK]&lt;/b&gt;" style="text;strokeColor=default;fillColor=none;align=left;verticalAlign=top;spacingLeft=4;spacingRight=4;overflow=hidden;rotatable=0;points=[[0,0.5],[1,0.5]];portConstraint=eastwest;whiteSpace=wrap;html=1;" vertex="1" parent="2LCNzhsqRDMmrgR8RLJ1-14">
          <mxGeometry y="26" width="160" height="26" as="geometry" />
        </mxCell>
        <mxCell id="2LCNzhsqRDMmrgR8RLJ1-16" value="salesContact: INT [FK]" style="text;strokeColor=none;fillColor=none;align=left;verticalAlign=top;spacingLeft=4;spacingRight=4;overflow=hidden;rotatable=0;points=[[0,0.5],[1,0.5]];portConstraint=eastwest;whiteSpace=wrap;html=1;" vertex="1" parent="2LCNzhsqRDMmrgR8RLJ1-14">
          <mxGeometry y="52" width="160" height="26" as="geometry" />
        </mxCell>
        <mxCell id="2LCNzhsqRDMmrgR8RLJ1-17" value="client: INT [FK]" style="text;strokeColor=none;fillColor=none;align=left;verticalAlign=top;spacingLeft=4;spacingRight=4;overflow=hidden;rotatable=0;points=[[0,0.5],[1,0.5]];portConstraint=eastwest;whiteSpace=wrap;html=1;" vertex="1" parent="2LCNzhsqRDMmrgR8RLJ1-14">
          <mxGeometry y="78" width="160" height="26" as="geometry" />
        </mxCell>
        <mxCell id="2LCNzhsqRDMmrgR8RLJ1-18" value="dateCreated: DATETIME" style="text;strokeColor=none;fillColor=none;align=left;verticalAlign=top;spacingLeft=4;spacingRight=4;overflow=hidden;rotatable=0;points=[[0,0.5],[1,0.5]];portConstraint=eastwest;whiteSpace=wrap;html=1;" vertex="1" parent="2LCNzhsqRDMmrgR8RLJ1-14">
          <mxGeometry y="104" width="160" height="26" as="geometry" />
        </mxCell>
        <mxCell id="2LCNzhsqRDMmrgR8RLJ1-19" value="dateUpdated: DATETIME" style="text;strokeColor=none;fillColor=none;align=left;verticalAlign=top;spacingLeft=4;spacingRight=4;overflow=hidden;rotatable=0;points=[[0,0.5],[1,0.5]];portConstraint=eastwest;whiteSpace=wrap;html=1;" vertex="1" parent="2LCNzhsqRDMmrgR8RLJ1-14">
          <mxGeometry y="130" width="160" height="26" as="geometry" />
        </mxCell>
        <mxCell id="2LCNzhsqRDMmrgR8RLJ1-20" value="status: BOOLEAN" style="text;strokeColor=none;fillColor=none;align=left;verticalAlign=top;spacingLeft=4;spacingRight=4;overflow=hidden;rotatable=0;points=[[0,0.5],[1,0.5]];portConstraint=eastwest;whiteSpace=wrap;html=1;" vertex="1" parent="2LCNzhsqRDMmrgR8RLJ1-14">
          <mxGeometry y="156" width="160" height="26" as="geometry" />
        </mxCell>
        <mxCell id="2LCNzhsqRDMmrgR8RLJ1-21" value="amount: FLOAT" style="text;strokeColor=none;fillColor=none;align=left;verticalAlign=top;spacingLeft=4;spacingRight=4;overflow=hidden;rotatable=0;points=[[0,0.5],[1,0.5]];portConstraint=eastwest;whiteSpace=wrap;html=1;" vertex="1" parent="2LCNzhsqRDMmrgR8RLJ1-14">
          <mxGeometry y="182" width="160" height="26" as="geometry" />
        </mxCell>
        <mxCell id="2LCNzhsqRDMmrgR8RLJ1-22" value="paymentDue: DATETIME" style="text;strokeColor=none;fillColor=none;align=left;verticalAlign=top;spacingLeft=4;spacingRight=4;overflow=hidden;rotatable=0;points=[[0,0.5],[1,0.5]];portConstraint=eastwest;whiteSpace=wrap;html=1;" vertex="1" parent="2LCNzhsqRDMmrgR8RLJ1-14">
          <mxGeometry y="208" width="160" height="26" as="geometry" />
        </mxCell>
        <mxCell id="2LCNzhsqRDMmrgR8RLJ1-23" value="&lt;b&gt;Client&lt;/b&gt;" style="swimlane;fontStyle=0;childLayout=stackLayout;horizontal=1;startSize=26;fillColor=none;horizontalStack=0;resizeParent=1;resizeParentMax=0;resizeLast=0;collapsible=1;marginBottom=0;whiteSpace=wrap;html=1;movable=1;resizable=1;rotatable=1;deletable=1;editable=1;locked=0;connectable=1;" vertex="1" parent="1">
          <mxGeometry x="280" y="280" width="200" height="286" as="geometry">
            <mxRectangle x="460" y="60" width="70" height="30" as="alternateBounds" />
          </mxGeometry>
        </mxCell>
        <mxCell id="2LCNzhsqRDMmrgR8RLJ1-24" value="&lt;b&gt;ID: INT [PK]&lt;/b&gt;" style="text;strokeColor=default;fillColor=none;align=left;verticalAlign=top;spacingLeft=4;spacingRight=4;overflow=hidden;rotatable=0;points=[[0,0.5],[1,0.5]];portConstraint=eastwest;whiteSpace=wrap;html=1;" vertex="1" parent="2LCNzhsqRDMmrgR8RLJ1-23">
          <mxGeometry y="26" width="200" height="26" as="geometry" />
        </mxCell>
        <mxCell id="2LCNzhsqRDMmrgR8RLJ1-25" value="firstName: VARCHAR(25)" style="text;strokeColor=none;fillColor=none;align=left;verticalAlign=top;spacingLeft=4;spacingRight=4;overflow=hidden;rotatable=0;points=[[0,0.5],[1,0.5]];portConstraint=eastwest;whiteSpace=wrap;html=1;" vertex="1" parent="2LCNzhsqRDMmrgR8RLJ1-23">
          <mxGeometry y="52" width="200" height="26" as="geometry" />
        </mxCell>
        <mxCell id="2LCNzhsqRDMmrgR8RLJ1-26" value="&lt;div&gt;lastName: VARCHAR(25)&lt;/div&gt;" style="text;strokeColor=none;fillColor=none;align=left;verticalAlign=top;spacingLeft=4;spacingRight=4;overflow=hidden;rotatable=0;points=[[0,0.5],[1,0.5]];portConstraint=eastwest;whiteSpace=wrap;html=1;" vertex="1" parent="2LCNzhsqRDMmrgR8RLJ1-23">
          <mxGeometry y="78" width="200" height="26" as="geometry" />
        </mxCell>
        <mxCell id="2LCNzhsqRDMmrgR8RLJ1-27" value="email: VARCHAR(100)" style="text;strokeColor=none;fillColor=none;align=left;verticalAlign=top;spacingLeft=4;spacingRight=4;overflow=hidden;rotatable=0;points=[[0,0.5],[1,0.5]];portConstraint=eastwest;whiteSpace=wrap;html=1;" vertex="1" parent="2LCNzhsqRDMmrgR8RLJ1-23">
          <mxGeometry y="104" width="200" height="26" as="geometry" />
        </mxCell>
        <mxCell id="2LCNzhsqRDMmrgR8RLJ1-28" value="phone: VARCHAR(20)" style="text;strokeColor=none;fillColor=none;align=left;verticalAlign=top;spacingLeft=4;spacingRight=4;overflow=hidden;rotatable=0;points=[[0,0.5],[1,0.5]];portConstraint=eastwest;whiteSpace=wrap;html=1;" vertex="1" parent="2LCNzhsqRDMmrgR8RLJ1-23">
          <mxGeometry y="130" width="200" height="26" as="geometry" />
        </mxCell>
        <mxCell id="2LCNzhsqRDMmrgR8RLJ1-29" value="mobile: VARCHAR(20)" style="text;strokeColor=none;fillColor=none;align=left;verticalAlign=top;spacingLeft=4;spacingRight=4;overflow=hidden;rotatable=0;points=[[0,0.5],[1,0.5]];portConstraint=eastwest;whiteSpace=wrap;html=1;" vertex="1" parent="2LCNzhsqRDMmrgR8RLJ1-23">
          <mxGeometry y="156" width="200" height="26" as="geometry" />
        </mxCell>
        <mxCell id="2LCNzhsqRDMmrgR8RLJ1-30" value="companyName: VARCHAR(250)" style="text;strokeColor=none;fillColor=none;align=left;verticalAlign=top;spacingLeft=4;spacingRight=4;overflow=hidden;rotatable=0;points=[[0,0.5],[1,0.5]];portConstraint=eastwest;whiteSpace=wrap;html=1;" vertex="1" parent="2LCNzhsqRDMmrgR8RLJ1-23">
          <mxGeometry y="182" width="200" height="26" as="geometry" />
        </mxCell>
        <mxCell id="2LCNzhsqRDMmrgR8RLJ1-31" value="dateCreated: DATETIME" style="text;strokeColor=none;fillColor=none;align=left;verticalAlign=top;spacingLeft=4;spacingRight=4;overflow=hidden;rotatable=0;points=[[0,0.5],[1,0.5]];portConstraint=eastwest;whiteSpace=wrap;html=1;" vertex="1" parent="2LCNzhsqRDMmrgR8RLJ1-23">
          <mxGeometry y="208" width="200" height="26" as="geometry" />
        </mxCell>
        <mxCell id="2LCNzhsqRDMmrgR8RLJ1-32" value="dateUpdated: DATETIME" style="text;strokeColor=none;fillColor=none;align=left;verticalAlign=top;spacingLeft=4;spacingRight=4;overflow=hidden;rotatable=0;points=[[0,0.5],[1,0.5]];portConstraint=eastwest;whiteSpace=wrap;html=1;" vertex="1" parent="2LCNzhsqRDMmrgR8RLJ1-23">
          <mxGeometry y="234" width="200" height="26" as="geometry" />
        </mxCell>
        <mxCell id="2LCNzhsqRDMmrgR8RLJ1-33" value="salesContact: INT [FK]" style="text;strokeColor=none;fillColor=none;align=left;verticalAlign=top;spacingLeft=4;spacingRight=4;overflow=hidden;rotatable=0;points=[[0,0.5],[1,0.5]];portConstraint=eastwest;whiteSpace=wrap;html=1;" vertex="1" parent="2LCNzhsqRDMmrgR8RLJ1-23">
          <mxGeometry y="260" width="200" height="26" as="geometry" />
        </mxCell>
        <mxCell id="2LCNzhsqRDMmrgR8RLJ1-38" value="" style="edgeStyle=entityRelationEdgeStyle;fontSize=12;html=1;endArrow=ERzeroToMany;endFill=1;rounded=0;entryX=0;entryY=0.5;entryDx=0;entryDy=0;exitX=1;exitY=0.5;exitDx=0;exitDy=0;" edge="1" parent="1" source="2LCNzhsqRDMmrgR8RLJ1-2" target="2LCNzhsqRDMmrgR8RLJ1-15">
          <mxGeometry width="100" height="100" relative="1" as="geometry">
            <mxPoint x="340" y="170" as="sourcePoint" />
            <mxPoint x="440" y="70" as="targetPoint" />
          </mxGeometry>
        </mxCell>
        <mxCell id="2LCNzhsqRDMmrgR8RLJ1-39" value="" style="edgeStyle=entityRelationEdgeStyle;fontSize=12;html=1;endArrow=ERzeroToMany;endFill=1;rounded=0;exitX=1;exitY=0.5;exitDx=0;exitDy=0;entryX=0;entryY=0.5;entryDx=0;entryDy=0;" edge="1" parent="1" source="2LCNzhsqRDMmrgR8RLJ1-2" target="2LCNzhsqRDMmrgR8RLJ1-33">
          <mxGeometry width="100" height="100" relative="1" as="geometry">
            <mxPoint x="210" y="141" as="sourcePoint" />
            <mxPoint x="240" y="490" as="targetPoint" />
          </mxGeometry>
        </mxCell>
        <mxCell id="2LCNzhsqRDMmrgR8RLJ1-40" value="" style="edgeStyle=entityRelationEdgeStyle;fontSize=12;html=1;endArrow=ERzeroToMany;endFill=1;rounded=0;entryX=0;entryY=0.5;entryDx=0;entryDy=0;" edge="1" parent="1" source="2LCNzhsqRDMmrgR8RLJ1-24" target="2LCNzhsqRDMmrgR8RLJ1-17">
          <mxGeometry width="100" height="100" relative="1" as="geometry">
            <mxPoint x="210" y="141" as="sourcePoint" />
            <mxPoint x="570" y="89" as="targetPoint" />
          </mxGeometry>
        </mxCell>
        <mxCell id="2LCNzhsqRDMmrgR8RLJ1-41" value="" style="edgeStyle=entityRelationEdgeStyle;fontSize=12;html=1;endArrow=ERzeroToMany;endFill=1;rounded=0;exitX=1;exitY=0.5;exitDx=0;exitDy=0;" edge="1" parent="1" source="2LCNzhsqRDMmrgR8RLJ1-17" target="2LCNzhsqRDMmrgR8RLJ1-6">
          <mxGeometry width="100" height="100" relative="1" as="geometry">
            <mxPoint x="210" y="141" as="sourcePoint" />
            <mxPoint x="570" y="89" as="targetPoint" />
          </mxGeometry>
        </mxCell>
        <mxCell id="2LCNzhsqRDMmrgR8RLJ1-42" value="" style="edgeStyle=entityRelationEdgeStyle;fontSize=12;html=1;endArrow=ERzeroToMany;endFill=1;rounded=0;exitX=1;exitY=0.5;exitDx=0;exitDy=0;" edge="1" parent="1" source="2LCNzhsqRDMmrgR8RLJ1-2" target="2LCNzhsqRDMmrgR8RLJ1-9">
          <mxGeometry width="100" height="100" relative="1" as="geometry">
            <mxPoint x="730" y="141" as="sourcePoint" />
            <mxPoint x="890" y="125" as="targetPoint" />
          </mxGeometry>
        </mxCell>
      </root>
    </mxGraphModel>
  </diagram>
</mxfile>
